<?xml version="1.0" standalone="no"?>
<!DOCTYPE svg PUBLIC "-//W3C//DTD SVG 1.1//EN" "http://www.w3.org/Graphics/SVG/1.1/DTD/svg11.dtd">
<svg xmlns="http://www.w3.org/2000/svg" viewBox="0 0 1440 320" width="1440" height="320"><path fill="#fff" fill-opacity="1" d="M0,160L26.7,170.7C53.3,181,107,203,160,218.7C213.3,235,267,245,320,234.7C373.3,224,427,192,480,170.7C533.3,149,587,139,640,144C693.3,149,747,171,800,176C853.3,181,907,171,960,154.7C1013.3,139,1067,117,1120,144C1173.3,171,1227,245,1280,234.7C1333.3,224,1387,128,1413,80L1440,32L1440,320L1413.3,320C1386.7,320,1333,320,1280,320C1226.7,320,1173,320,1120,320C1066.7,320,1013,320,960,320C906.7,320,853,320,800,320C746.7,320,693,320,640,320C586.7,320,533,320,480,320C426.7,320,373,320,320,320C266.7,320,213,320,160,320C106.7,320,53,320,27,320L0,320Z"/></svg>